<?xml version="1.0" encoding="UTF-8" standalone="no"?>
<svg width="83px" height="64px" viewBox="0 0 83 64" version="1.1" xmlns="http://www.w3.org/2000/svg" xmlns:xlink="http://www.w3.org/1999/xlink" xmlns:sketch="http://www.bohemiancoding.com/sketch/ns">
    <!-- Generator: Sketch 3.0.3 (7892) - http://www.bohemiancoding.com/sketch -->
    <title>Slice 1</title>
    <desc>Created with Sketch.</desc>
    <defs></defs>
    <g id="Page-1" stroke="none" stroke-width="1" fill="none" fill-rule="evenodd" sketch:type="MSPage">
        <g id="Icon" sketch:type="MSLayerGroup" transform="translate(21.000000, 0.000000)" fill="#FFFFFF">
            <circle id="Oval" sketch:type="MSShapeGroup" cx="19" cy="57.833" r="1.8"></circle>
            <path d="M34.543,63.45 L3.457,63.45 C2.01,63.45 0.832,62.272 0.832,60.824 L0.832,3.176 C0.832,1.728 2.01,0.55 3.457,0.55 L34.543,0.55 C35.99,0.55 37.168,1.728 37.168,3.176 L37.168,60.824 C37.168,62.272 35.99,63.45 34.543,63.45 L34.543,63.45 L34.543,63.45 L34.543,63.45 Z M3.457,1.45 C2.506,1.45 1.73,2.223 1.73,3.176 L1.73,60.824 C1.73,61.776 2.505,62.55 3.457,62.55 L34.543,62.55 C35.494,62.55 36.268,61.777 36.268,60.824 L36.268,3.176 C36.268,2.224 35.495,1.45 34.543,1.45 L3.457,1.45 L3.457,1.45 L3.457,1.45 L3.457,1.45 Z" id="Shape" sketch:type="MSShapeGroup"></path>
            <path d="M32.596,53.118 L5.402,53.118 C5.154,53.118 4.953,52.916 4.953,52.668 C4.953,52.42 5.154,52.218 5.402,52.218 L32.146,52.218 L32.146,9.159 C32.146,8.91 32.347,8.709 32.595,8.709 C32.843,8.709 33.046,8.91 33.046,9.159 L33.046,52.668 C33.047,52.916 32.844,53.118 32.596,53.118 L32.596,53.118 L32.596,53.118 L32.596,53.118 Z" id="Shape" sketch:type="MSShapeGroup"></path>
            <path d="M5.402,45.358 C5.291,45.358 5.179,45.316 5.091,45.232 C4.911,45.06 4.905,44.775 5.077,44.596 L32.27,16.291 C32.442,16.111 32.727,16.106 32.907,16.278 C33.087,16.45 33.093,16.735 32.919,16.915 L5.729,45.22 C5.639,45.312 5.521,45.358 5.402,45.358 L5.402,45.358 L5.402,45.358 L5.402,45.358 Z" id="Shape" sketch:type="MSShapeGroup"></path>
            <path d="M5.402,40.778 C5.291,40.778 5.179,40.736 5.091,40.652 C4.911,40.48 4.905,40.195 5.077,40.016 L32.27,11.712 C32.442,11.532 32.727,11.527 32.907,11.699 C33.087,11.872 33.093,12.156 32.919,12.336 L5.729,40.64 C5.639,40.732 5.521,40.778 5.402,40.778 L5.402,40.778 L5.402,40.778 L5.402,40.778 Z" id="Shape" sketch:type="MSShapeGroup"></path>
            <path d="M5.402,27.041 C5.291,27.041 5.179,26.999 5.091,26.915 C4.911,26.743 4.905,26.458 5.077,26.279 L21.825,8.847 C21.997,8.667 22.282,8.661 22.462,8.833 C22.64,9.006 22.646,9.29 22.474,9.47 L5.729,26.902 C5.639,26.994 5.521,27.041 5.402,27.041 L5.402,27.041 L5.402,27.041 L5.402,27.041 Z" id="Shape" sketch:type="MSShapeGroup"></path>
            <path d="M5.402,22.462 C5.291,22.462 5.179,22.42 5.091,22.336 C4.911,22.164 4.905,21.879 5.077,21.7 L17.427,8.847 C17.599,8.667 17.884,8.662 18.062,8.833 C18.242,9.006 18.248,9.29 18.076,9.47 L5.729,22.323 C5.639,22.416 5.521,22.462 5.402,22.462 L5.402,22.462 L5.402,22.462 L5.402,22.462 Z" id="Shape" sketch:type="MSShapeGroup"></path>
            <path d="M5.402,36.199 C5.291,36.199 5.179,36.157 5.091,36.074 C4.911,35.901 4.905,35.617 5.077,35.437 L30.624,8.847 C30.796,8.667 31.081,8.662 31.261,8.833 C31.441,9.006 31.447,9.29 31.273,9.47 L5.728,36.06 C5.639,36.153 5.521,36.199 5.402,36.199 L5.402,36.199 L5.402,36.199 L5.402,36.199 Z" id="Shape" sketch:type="MSShapeGroup"></path>
            <path d="M5.402,31.62 C5.291,31.62 5.179,31.578 5.091,31.494 C4.911,31.322 4.905,31.037 5.077,30.858 L26.223,8.847 C26.397,8.667 26.68,8.662 26.86,8.833 C27.04,9.006 27.046,9.29 26.874,9.47 L5.729,31.481 C5.639,31.574 5.521,31.62 5.402,31.62 L5.402,31.62 L5.402,31.62 L5.402,31.62 Z" id="Shape" sketch:type="MSShapeGroup"></path>
            <path d="M5.402,17.882 C5.291,17.882 5.179,17.84 5.091,17.757 C4.911,17.584 4.905,17.3 5.077,17.12 L13.026,8.848 C13.198,8.668 13.483,8.663 13.663,8.834 C13.841,9.007 13.847,9.291 13.675,9.471 L5.728,17.744 C5.639,17.836 5.521,17.882 5.402,17.882 L5.402,17.882 L5.402,17.882 L5.402,17.882 Z" id="Shape" sketch:type="MSShapeGroup"></path>
            <path d="M5.402,13.303 C5.291,13.303 5.179,13.261 5.091,13.178 C4.911,13.005 4.905,12.721 5.077,12.541 L8.626,8.848 C8.8,8.668 9.083,8.663 9.263,8.834 C9.443,9.007 9.449,9.291 9.277,9.471 L5.728,13.164 C5.639,13.257 5.521,13.303 5.402,13.303 L5.402,13.303 L5.402,13.303 L5.402,13.303 Z" id="Shape" sketch:type="MSShapeGroup"></path>
            <path d="M28.744,53.118 C28.633,53.118 28.519,53.076 28.433,52.992 C28.253,52.82 28.247,52.535 28.419,52.356 L32.271,48.347 C32.443,48.167 32.728,48.162 32.908,48.333 C33.088,48.506 33.094,48.79 32.92,48.97 L29.068,52.979 C28.98,53.072 28.863,53.118 28.744,53.118 L28.744,53.118 L28.744,53.118 L28.744,53.118 Z" id="Shape" sketch:type="MSShapeGroup"></path>
            <path d="M24.346,53.118 C24.233,53.118 24.121,53.076 24.034,52.992 C23.854,52.82 23.848,52.535 24.02,52.356 L32.272,43.767 C32.444,43.587 32.729,43.582 32.909,43.754 C33.089,43.926 33.095,44.211 32.921,44.39 L24.671,52.979 C24.58,53.072 24.463,53.118 24.346,53.118 L24.346,53.118 L24.346,53.118 L24.346,53.118 Z" id="Shape" sketch:type="MSShapeGroup"></path>
            <path d="M19.945,53.118 C19.834,53.118 19.72,53.076 19.634,52.992 C19.454,52.82 19.448,52.535 19.62,52.356 L32.27,39.188 C32.442,39.008 32.727,39.003 32.907,39.175 C33.087,39.347 33.093,39.632 32.919,39.812 L20.27,52.979 C20.182,53.072 20.064,53.118 19.945,53.118 L19.945,53.118 L19.945,53.118 L19.945,53.118 Z" id="Shape" sketch:type="MSShapeGroup"></path>
            <path d="M6.746,53.118 C6.635,53.118 6.521,53.076 6.435,52.992 C6.255,52.82 6.249,52.535 6.421,52.356 L32.271,25.45 C32.443,25.27 32.728,25.265 32.908,25.437 C33.088,25.609 33.094,25.894 32.92,26.074 L7.07,52.979 C6.982,53.072 6.865,53.118 6.746,53.118 L6.746,53.118 L6.746,53.118 L6.746,53.118 Z" id="Shape" sketch:type="MSShapeGroup"></path>
            <path d="M5.402,49.938 C5.291,49.938 5.179,49.896 5.091,49.813 C4.911,49.64 4.905,49.356 5.077,49.176 L32.27,20.872 C32.442,20.691 32.727,20.687 32.907,20.859 C33.087,21.031 33.093,21.316 32.919,21.495 L5.729,49.799 C5.639,49.892 5.521,49.938 5.402,49.938 L5.402,49.938 L5.402,49.938 L5.402,49.938 Z" id="Shape" sketch:type="MSShapeGroup"></path>
            <path d="M15.547,53.118 C15.434,53.118 15.322,53.076 15.235,52.992 C15.055,52.82 15.049,52.535 15.223,52.356 L32.272,34.609 C32.444,34.429 32.729,34.424 32.909,34.596 C33.089,34.768 33.095,35.053 32.921,35.232 L15.871,52.979 C15.783,53.072 15.664,53.118 15.547,53.118 L15.547,53.118 L15.547,53.118 L15.547,53.118 Z" id="Shape" sketch:type="MSShapeGroup"></path>
            <path d="M11.146,53.118 C11.035,53.118 10.921,53.076 10.834,52.992 C10.656,52.82 10.65,52.535 10.822,52.356 L32.271,30.03 C32.443,29.85 32.728,29.845 32.908,30.017 C33.088,30.189 33.094,30.474 32.92,30.654 L11.471,52.979 C11.383,53.072 11.266,53.118 11.146,53.118 L11.146,53.118 L11.146,53.118 L11.146,53.118 Z" id="Shape" sketch:type="MSShapeGroup"></path>
        </g>
        <g id="Group" sketch:type="MSLayerGroup" transform="translate(3.000000, 17.000000)" stroke="#FFFFFF" stroke-linecap="square">
            <path d="M70.0379744,2.02183846 C69.4042669,1.4136181 77.0087562,13.5780354 70.0379744,30" id="Line" sketch:type="MSShapeGroup"></path>
            <path d="M4.03797436,2.02183846 C3.40426693,1.4136181 11.0087562,13.5780354 4.03797436,30" id="Line-copy" sketch:type="MSShapeGroup" transform="translate(5.500000, 16.000000) rotate(-180.000000) translate(-5.500000, -16.000000) "></path>
            <path d="M74.0379744,0.0249582406 C73.4042669,-0.670150739 81.0087562,13.2320405 74.0379744,32" id="Line" sketch:type="MSShapeGroup"></path>
            <path d="M0.037974355,0.0249582406 C-0.595733073,-0.670150739 7.00875615,13.2320405 0.037974355,32" id="Line-copy" sketch:type="MSShapeGroup" transform="translate(1.500000, 16.000000) rotate(-180.000000) translate(-1.500000, -16.000000) "></path>
            <path d="M66.0379744,3.01949863 C65.4042669,2.47644474 73.0087562,13.3375316 66.0379744,28" id="Line" sketch:type="MSShapeGroup"></path>
            <path d="M8.03797436,3.01949863 C7.40426693,2.47644474 15.0087562,13.3375316 8.03797436,28" id="Line-copy" sketch:type="MSShapeGroup" transform="translate(9.500000, 15.500000) rotate(-180.000000) translate(-9.500000, -15.500000) "></path>
        </g>
    </g>
</svg>